<?xml version="1.0" encoding="UTF-8"?>
<svg id="Livello_1" xmlns="http://www.w3.org/2000/svg" version="1.1" viewBox="0 0 204.02 204.02">
  <!-- Generator: Adobe Illustrator 30.6.0, SVG Export Plug-In . SVG Version: 2.1.4 Build 109)  -->
  <defs>
    <style>
      .st0 {
        fill: none;
        stroke: #fff;
        stroke-miterlimit: 10;
        stroke-width: 2.83px;
      }

      .st1 {
        fill: #0060a1;
      }
    </style>
  </defs>
  <path class="st1" d="M170.77,164.71h-2.29c-.04-1.32-.08-2.63-.12-3.95-.08-1.86.13-2.71-.88-4.73-1.34-2.71-3.66-3.83-4.35-4.14v-85.63c3.82-4.81,7.65-9.62,11.47-14.42.96-1.25,3.45-5.45,1.11-10.3-1.52-3.15-4.42-5.73-9-5.73h-3.98c.13-.4,1.84-6.18-1.98-10.82-3.04-3.7-7.38-3.97-8.11-4.01H51.45c-.73.03-5.07.31-8.11,4.01-3.82,4.64-2.1,10.42-1.98,10.82h-3.98c-4.59,0-7.48,2.58-9,5.73-2.34,4.85.15,9.06,1.11,10.3,3.82,4.81,7.65,9.62,11.47,14.42v85.63c-.69.3-3.01,1.43-4.35,4.14-1,2.02-.79,2.87-.88,4.73-.04,1.32-.08,2.63-.12,3.95h-2.37c-3.89,0-7.04,3.17-7.04,7.08v4.16c0,3.91,3.15,7.08,7.04,7.08h137.52c3.89,0,7.04-3.17,7.04-7.08v-4.16c0-3.91-3.15-7.08-7.04-7.08Z"/>
  <g>
    <rect class="st0" x="52.16" y="38.41" width="99.7" height="13.74"/>
    <rect class="st0" x="52.16" y="66.64" width="99.7" height="15.22"/>
    <rect class="st0" x="46.15" y="157.81" width="30.17" height="16.09"/>
    <rect class="st0" x="127.69" y="157.81" width="30.17" height="16.09"/>
    <polyline class="st0" points="36.22 173.9 40.14 173.9 46.15 173.9"/>
    <polyline class="st0" points="167.79 173.9 163.87 173.9 157.86 173.9"/>
    <polyline class="st0" points="127.69 173.9 118.33 173.9 85.68 173.9 76.32 173.9"/>
    <line class="st0" x1="71.3" y1="157.81" x2="71.3" y2="81.85"/>
    <line class="st0" x1="52.16" y1="157.81" x2="52.16" y2="81.85"/>
    <line class="st0" x1="151.86" y1="157.81" x2="151.86" y2="81.85"/>
    <polygon class="st0" points="163.87 52.16 157.86 59.4 151.86 66.64 52.16 66.64 52.16 66.38 46.15 59.27 40.14 52.16 163.87 52.16"/>
    <line class="st0" x1="52.27" y1="66.5" x2="52.16" y2="66.38"/>
    <line class="st0" x1="132.72" y1="157.81" x2="132.72" y2="81.85"/>
    <path class="st0" d="M97.67,94.05h8.68c6.62,0,11.99,5.37,11.99,11.99v67.86h-32.66v-67.86c0-6.62,5.37-11.99,11.99-11.99Z"/>
  </g>
</svg>